<?xml version="1.0" encoding="utf-8"?>
<!-- Generator: Adobe Illustrator 25.0.0, SVG Export Plug-In . SVG Version: 6.00 Build 0)  -->
<svg version="1.1" xmlns="http://www.w3.org/2000/svg" xmlns:xlink="http://www.w3.org/1999/xlink" x="0px" y="0px"
	 viewBox="0 0 3000 3000" style="enable-background:new 0 0 3000 3000;" xml:space="preserve">
<style type="text/css">
	.st0{display:none;}
	.st1{display:inline;}
	.st2{fill:none;stroke:#000000;stroke-width:20;stroke-miterlimit:10;}
	.st3{display:inline;fill:none;stroke:#000000;stroke-width:20;stroke-miterlimit:10;}
	.st4{display:inline;fill:none;stroke:#000000;stroke-width:30;stroke-miterlimit:10;}
	.st5{display:none;fill:none;stroke:#000000;stroke-width:30;stroke-miterlimit:10;}
	.st6{fill:none;stroke:url(#SVGID_1_);stroke-width:30;stroke-miterlimit:10;}
	.st7{fill:url(#SVGID_2_);stroke:url(#SVGID_3_);stroke-width:10;stroke-miterlimit:10;}
	.st8{font-family:'simpletix';}
	.st9{font-size:400px;}
	.st10{font-size:100px;}
</style>
<g id="Layer_1">
</g>
<g id="Layer_3" class="st0">
	<g id="Layer_2_copy" class="st1">
		<g>
			<circle id="Elipse_1_1_" class="st2" cx="854.22" cy="1802.66" r="511.42"/>
			
				<ellipse id="Elipse_2_1_" transform="matrix(0.0165 -0.9999 0.9999 0.0165 -107.4402 3138.157)" class="st2" cx="1541.49" cy="1623.69" rx="695.9" ry="660.1"/>
			<circle id="Elipse_3_1_" class="st2" cx="2230.2" cy="1881.76" r="438.79"/>
			<line id="Line_1_1_" class="st2" x1="820.67" y1="2313.59" x2="2242.37" y2="2320.81"/>
		</g>
		<path id="Lock_Base_1_" class="st2" d="M1863,2317h-648v-538.3c0-35.73,28.97-64.7,64.7-64.7h518.59c35.73,0,64.7,28.97,64.7,64.7
			V2317z"/>
		<ellipse id="Lock_Rod_1_" class="st2" cx="1547.09" cy="1689.73" rx="243.09" ry="253.37"/>
	</g>
</g>
<g id="des_1" class="st0">
	<path class="st2" d="M1625.26,2259c-21.49,1.99-43.26,3-65.26,3s-43.77-1.01-65.26-3H1625.26z"/>
	<path class="st2" d="M1782,1687.18c0,13.95-1.24,27.59-3.63,40.82h-414.93c-2.39-13.23-3.63-26.87-3.63-40.82
		c0-121.66,94.51-220.28,211.09-220.28C1687.49,1466.9,1782,1565.52,1782,1687.18z"/>
	<path class="st3" d="M2700,1845.9c0,229.81-186.29,416.1-416.1,416.1c-16.98,0-33.73-1.02-50.18-3H1899v-478.37
		c0-14.51-7.06-27.66-18.48-37.19c-11.45-9.54-27.27-15.44-44.75-15.44h-57.4c2.39-13.23,3.63-26.87,3.63-40.82
		c0-121.66-94.51-220.28-211.1-220.28c-116.58,0-211.09,98.62-211.09,220.28c0,13.95,1.24,27.59,3.63,40.82h-59.08
		c-34.92,0-63.23,23.56-63.23,52.63V2259H886.47c-18.42,1.99-37.13,3-56.07,3c-289.62,0-524.4-237.33-524.4-530.1
		s234.78-530.1,524.4-530.1c36.51,0,72.16,3.77,106.57,10.96C1056.18,989.08,1290.48,837,1560,837
		c350.18,0,640.89,256.72,697,593.65c8.89-0.56,17.86-0.85,26.9-0.85C2513.71,1429.8,2700,1616.09,2700,1845.9z"/>
	<line class="st2" x1="2331" y1="2259" x2="2233.72" y2="2259"/>
	<line class="st3" x1="886.47" y1="2259" x2="873" y2="2259"/>
	<path class="st2" d="M1899,1780.63V2259h-657.87v-478.37c0-29.07,28.31-52.63,63.23-52.63h531.41c17.48,0,33.3,5.9,44.75,15.44
		C1891.94,1752.97,1899,1766.12,1899,1780.63z"/>
	<path class="st2" d="M1782,1687.18c0,13.95-1.24,27.59-3.63,40.82h-414.93c-2.39-13.23-3.63-26.87-3.63-40.82
		c0-121.66,94.51-220.28,211.09-220.28C1687.49,1466.9,1782,1565.52,1782,1687.18z"/>
</g>
<g id="Layer_5" class="st0">
	<path class="st4" d="M2299.5,1260c-17.59,0-34.95,1.01-52.02,2.98C2160.72,964.49,1892.47,747,1575,747
		c-224.26,0-423.96,108.53-552.48,277.47C968.04,1007.9,910.3,999,850.5,999C519.96,999,252,1270.99,252,1606.5
		S519.96,2214,850.5,2214h1449c255.98,0,463.5-213.56,463.5-477S2555.48,1260,2299.5,1260z M1665.14,1692.6
		c-26.7,22.08-61.32,35.4-99.14,35.4c-84.5,0-153-66.49-153-148.5s68.5-148.5,153-148.5s153,66.49,153,148.5
		C1719,1624.8,1698.1,1665.37,1665.14,1692.6z"/>
	<path class="st4" d="M1719,1579.5c0,45.3-20.9,85.87-53.86,113.1c-26.7,22.08-61.32,35.4-99.14,35.4c-84.5,0-153-66.49-153-148.5
		s68.5-148.5,153-148.5S1719,1497.49,1719,1579.5z"/>
	<line class="st4" x1="2331" y1="2214" x2="2299.5" y2="2214"/>
	<line class="st4" x1="850.5" y1="2214" x2="846" y2="2214"/>
	<path class="st4" d="M1719,1579.5c0,45.3-20.9,85.87-53.86,113.1c-26.7,22.08-61.32,35.4-99.14,35.4c-84.5,0-153-66.49-153-148.5
		s68.5-148.5,153-148.5S1719,1497.49,1719,1579.5z"/>
	<line class="st4" x1="1476" y1="1710" x2="1386" y2="2223"/>
	<line class="st4" x1="1665" y1="1692" x2="1791" y2="2214"/>
</g>
<g id="backup" class="st0">
</g>
<g id="Layer_8">
	<path class="st5" d="M1872.02,1652.6V2214h-638.61v-561.4c0-37.45,30.37-67.82,67.82-67.82h46.17c-0.85-7.71-1.29-15.54-1.29-23.48
		c0-116.7,94.6-211.3,211.3-211.3c116.7,0,211.31,94.6,211.31,211.3c0,7.94-0.44,15.77-1.29,23.48h36.77
		C1841.66,1584.78,1872.02,1615.15,1872.02,1652.6z"/>
	<linearGradient id="SVGID_1_" gradientUnits="userSpaceOnUse" x1="237" y1="1480.5" x2="2778" y2="1480.5">
		<stop  offset="0.0559" style="stop-color:#EC008C"/>
		<stop  offset="1" style="stop-color:#F15A29"/>
	</linearGradient>
	<path class="st6" d="M2763,1737c0,263.44-207.52,477-463.5,477h-427.48v-561.4c0-37.45-30.36-67.82-67.82-67.82h-36.77
		c0.85-7.71,1.29-15.54,1.29-23.48c0-116.7-94.61-211.3-211.31-211.3c-116.7,0-211.3,94.6-211.3,211.3c0,7.94,0.44,15.77,1.29,23.48
		h-46.17c-37.45,0-67.82,30.37-67.82,67.82V2214H850.5c-330.54,0-598.5-271.99-598.5-607.5S519.96,999,850.5,999
		c67.8,0,132.96,11.44,193.72,32.53C1172.51,858.56,1374.64,747,1602,747c316.67,0,584.37,216.4,671.83,513.73
		c8.5-0.49,17.06-0.73,25.67-0.73C2555.48,1260,2763,1473.56,2763,1737z"/>
	<linearGradient id="SVGID_2_" gradientUnits="userSpaceOnUse" x1="1512" y1="1867.5" x2="1593" y2="1867.5">
		<stop  offset="0.0559" style="stop-color:#EC008C"/>
		<stop  offset="1" style="stop-color:#F15A29"/>
	</linearGradient>
	<linearGradient id="SVGID_3_" gradientUnits="userSpaceOnUse" x1="1507" y1="1867.5" x2="1598" y2="1867.5">
		<stop  offset="0.0559" style="stop-color:#EC008C"/>
		<stop  offset="1" style="stop-color:#F15A29"/>
	</linearGradient>
	<circle class="st7" cx="1552.5" cy="1867.5" r="40.5"/>
	<text transform="matrix(1 0 0 1 720 2583)" class="st8 st9">NCLOUD</text>
	<rect x="-711.44" y="945" style="fill:none;" width="0.44" height="3.13"/>
	<text transform="matrix(1 0 0 1 954 2700)" class="st8 st10">Encrypted Cloud Storage </text>
</g>
</svg>
